<svg id="Layer_1" data-name="Layer 1" xmlns="http://www.w3.org/2000/svg" viewBox="0 0 89.11 89.11"><defs><style>.cls-1{fill:#010101;}</style></defs><path class="cls-1" d="M44.56,5A39.2,39.2,0,0,1,59.92,8.07a39.94,39.94,0,0,1,12.55,8.45,38.12,38.12,0,0,1,8.45,12.54,40,40,0,0,1,0,30.73,40.28,40.28,0,0,1-8.45,12.55,38.17,38.17,0,0,1-12.55,8.45,40,40,0,0,1-30.73,0,40.28,40.28,0,0,1-12.55-8.45A39.2,39.2,0,0,1,5.12,44.56,39.38,39.38,0,0,1,8.19,29.19a40.28,40.28,0,0,1,8.45-12.55A38.17,38.17,0,0,1,29.19,8.19,40,40,0,0,1,44.56,5m0-5A44.56,44.56,0,1,0,89.11,44.56,44.59,44.59,0,0,0,44.56,0Z"/><polygon class="cls-1" points="26.12 60.56 44.55 32.39 62.99 60.56 69.01 60.56 44.55 23.3 44.55 23.3 44.55 23.3 44.55 23.3 44.55 23.3 20.1 60.56 26.12 60.56"/></svg>